<svg width="209" height="75" viewBox="0 0 209 75" fill="none" xmlns="http://www.w3.org/2000/svg">
<path d="M33.8493 59.6776L34.188 66.9633L31.5194 68.4564L2.76827 68.4239L2.34491 59.3168L4.58736 56.0181L28.1522 54.9227L31.2159 56.0181L33.8493 59.6776Z" fill="#FC1A2A"/>
<path d="M73.8568 48.4061L57.9994 26.6019C57.9994 26.6019 79.6231 26.9622 79.6231 27.6829C79.6231 28.4036 79.6231 45.5226 79.6231 45.5226L73.8568 48.4061Z" fill="#FFCDD1"/>
<path d="M80.9243 45.8857L69.0389 49.4277L66.9931 52.1826L53.455 51.946L49.5192 48.4041L40.704 45.8857L41.0192 65.2482L79.5075 65.4841L81.2395 59.5024L80.9243 45.8857Z" fill="#DD0A1B"/>
<path d="M81.7113 27.0744L39.0513 26.2087L40.9405 19.0462L61.0107 17.2355H73.4472L80.0587 18.8096L81.7113 27.0744Z" fill="#DD0A1B"/>
<path d="M53.3641 57.2432H67.0334C67.9777 57.2432 68.7429 58.0056 68.7429 58.9465C68.7429 59.8874 67.9777 60.6498 67.0334 60.6498H53.3641C52.4204 60.6498 51.6553 59.8874 51.6553 58.9465C51.6546 58.0063 52.4204 57.2432 53.3641 57.2432Z" fill="white"/>
<path d="M32.2408 27.8101L38.0584 25.9236V22.9204C38.0584 18.9573 41.2934 15.7326 45.2695 15.7326H75.1902C79.1663 15.7326 82.4013 18.9566 82.4013 22.9204V25.9434L88.1566 27.8101C88.8602 28.0385 89.3368 28.6922 89.3368 29.43V36.1139C89.3368 37.0548 88.5716 37.8179 87.6274 37.8179C86.6837 37.8179 85.9186 37.0554 85.9186 36.1139V30.6676L82.4013 29.5271V45.6587V45.6758V62.163C82.4013 64.3969 80.9852 66.3074 79.0015 67.0506V72.3054C79.0015 73.2463 78.2364 74.0094 77.2921 74.0094H70.4516C69.5073 74.0094 68.7422 73.2463 68.7422 72.3054V67.3823H51.6546V72.3054C51.6546 73.2463 50.8895 74.0094 49.9452 74.0094H43.1047C42.1611 74.0094 41.3959 73.247 41.3959 72.3054V67.026C39.4451 66.2663 38.0584 64.3736 38.0584 62.163V45.6758C38.0584 45.6703 38.0584 45.6642 38.0584 45.6587V29.5073L34.4782 30.6683V36.1146C34.4782 37.0554 33.713 37.8185 32.7694 37.8185C31.8258 37.8185 31.06 37.0561 31.06 36.1146V29.4307C31.0606 28.6922 31.5372 28.0385 32.2408 27.8101ZM43.2954 63.9757H77.1642C78.1666 63.9757 78.9831 63.1627 78.9831 62.163V47.9959L70.8947 50.5368L68.9466 53.1857C68.6245 53.6233 68.1124 53.8818 67.5681 53.8818H52.8929C52.3486 53.8818 51.8365 53.6233 51.5144 53.1857L49.5663 50.5368L41.478 47.9959V62.163C41.4773 63.162 42.293 63.9757 43.2954 63.9757ZM51.1274 47.4543C51.4741 47.563 51.777 47.7798 51.9924 48.0718L53.7593 50.4739H66.7011L68.468 48.0718C68.6827 47.7791 68.9856 47.563 69.3329 47.4543L78.9831 44.4224V28.8618H41.478V44.4224L51.1274 47.4543ZM75.1902 19.1405H45.2695C43.1785 19.1405 41.4773 20.8363 41.4773 22.9211V25.4559H78.9824V22.9211C78.9824 20.8363 77.2811 19.1405 75.1902 19.1405ZM72.1603 70.6022H75.5826V67.3829H72.1603V70.6022ZM48.2364 70.6022V67.3829H44.8141V70.6022H48.2364Z" fill="white"/>
<path d="M46.5242 57.1537C47.4685 57.1537 48.2337 57.9161 48.2337 58.8569V58.911C48.2337 59.8518 47.4685 60.6149 46.5242 60.6149C45.5806 60.6149 44.8155 59.8518 44.8155 58.911V58.8569C44.8148 57.9161 45.5806 57.1537 46.5242 57.1537Z" fill="#F3F3F5"/>
<path d="M73.8705 57.1537C74.8141 57.1537 75.5799 57.9161 75.5799 58.8569V58.911C75.5799 59.8518 74.8148 60.6149 73.8705 60.6149C72.9262 60.6149 72.161 59.8518 72.161 58.911V58.8569C72.161 57.9161 72.9262 57.1537 73.8705 57.1537Z" fill="#F3F3F5"/>
<path d="M25.4038 55.4027L18.9079 46.5025C18.9079 46.5025 28.8226 46.5054 28.8226 46.8444C28.8226 47.1834 29.8483 55.3916 29.8483 55.3916L25.4038 55.4027Z" fill="#FFCDD1"/>
<path d="M0.445972 53.459V51.4157H4.61907L7.43261 45.1349H28.3319L31.1457 51.4157H35.3185V53.459H32.0609L32.4566 54.3423L34.1537 56.6916C34.9157 57.7468 35.3185 58.9922 35.3185 60.2938V70.0812H33.2151V71.586C33.2151 73.107 31.9777 74.3445 30.4566 74.3445H27.4361C25.915 74.3445 24.6776 73.107 24.6776 71.586V70.0812H11.0869V71.586C11.0869 73.107 9.84947 74.3445 8.32843 74.3445H5.30789C3.78684 74.3445 2.54941 73.107 2.54941 71.586V70.0812H0.445972V60.2938C0.445972 58.9922 0.848782 57.7465 1.61077 56.6916L3.30794 54.3423L3.70357 53.459H0.445972ZM27.0083 47.1782H8.75625L5.77455 53.8342H29.9899L27.0083 47.1782ZM26.7209 71.586C26.7209 71.9806 27.0418 72.3012 27.4361 72.3012H30.4566C30.8512 72.3012 31.1718 71.9806 31.1718 71.586V70.0812H26.7209V71.586ZM4.59273 71.586C4.59273 71.9806 4.91333 72.3012 5.30789 72.3012H8.32843C8.72272 72.3012 9.04359 71.9806 9.04359 71.586V70.0812H4.59273V71.586ZM2.48928 68.0379H33.2752V66.1936H2.48928V68.0379ZM21.5916 64.1503L20.6931 61.0906H15.0711L14.1726 64.1503H21.5916ZM2.48928 64.1503H12.0431L13.5415 59.0473H22.223L23.7214 64.1503H33.2752V60.2938C33.2752 59.4246 33.0062 58.5929 32.4973 57.8881L31.0449 55.8775H4.71964L3.26723 57.8881C2.75827 58.5929 2.48928 59.4246 2.48928 60.2938V64.1503Z" fill="white"/>
<path d="M0.891842 60.2941C0.891842 59.0865 1.26495 57.9319 1.97184 56.9531L3.66935 54.6032L3.69635 54.5666L3.71464 54.5248L4.11093 53.6417L4.39225 53.0128H0.891842V51.8614H4.90787L5.02632 51.5984L7.72109 45.5809H28.0433L30.8566 51.8614H34.8726V53.0128H31.3722L32.0498 54.5248L32.0681 54.5666L32.0951 54.6032L33.7926 56.9531C34.4995 57.9322 34.8726 59.0865 34.8726 60.2941V69.6352H32.7692V71.5862C32.7691 72.8608 31.7314 73.8985 30.4568 73.8986H27.4363C26.1616 73.8986 25.124 72.8609 25.1239 71.5862V69.6352H10.6406V71.5862C10.6405 72.8609 9.60285 73.8986 8.32815 73.8986H5.30764C4.03305 73.8985 2.99532 72.8608 2.99522 71.5862V69.6352H0.891842V60.2941ZM27.1671 70.5271H30.7259V71.5862C30.7258 71.7343 30.6049 71.8552 30.4568 71.8553H27.4363C27.2882 71.8553 27.1672 71.7343 27.1671 71.5862V70.5271ZM5.03851 70.5271H8.59728V71.5862C8.59718 71.7343 8.47621 71.8553 8.32815 71.8553H5.30764C5.15953 71.8552 5.03861 71.7343 5.03851 71.5862V70.5271ZM2.04326 65.7472V68.4838H33.7212V65.7472H2.04326ZM32.8293 67.5919H2.93513V66.6391H32.8293V67.5919ZM13.2073 58.6009L11.7092 63.7039H2.93513V60.2941C2.93513 59.5187 3.17431 58.7777 3.62842 58.1489L4.94793 56.3234H30.8165L32.136 58.1489C32.5901 58.7777 32.8293 59.5187 32.8293 60.2941V63.7039H24.0552L22.5571 58.6009H13.2073ZM14.7376 60.6451L13.5766 64.5958H22.187L21.0268 60.6451H14.7376ZM20.9955 63.7039H14.7689L15.4048 61.537H20.3597L20.9955 63.7039ZM8.4675 46.7323L5.08641 54.2801H30.678L27.2969 46.7323H8.4675ZM29.3019 53.3882H6.46254L9.04496 47.6242H26.7195L29.3019 53.3882ZM26.2753 71.5862C26.2754 72.227 26.7959 72.7472 27.4363 72.7472H30.4568C31.0975 72.7471 31.6177 72.2269 31.6178 71.5862V69.6352H26.2753V71.5862ZM4.14664 71.5862C4.14674 72.2269 4.66697 72.747 5.30764 72.7472H8.32815C8.96856 72.7472 9.48905 72.227 9.48915 71.5862V69.6352H4.14664V71.5862ZM2.04326 64.5958H12.3773L13.8753 59.4928H21.8891L23.3872 64.5958H33.7212V60.2941C33.7212 59.3312 33.4226 58.4079 32.8589 57.6272L31.2729 55.4315H4.49154L2.90551 57.6272C2.34179 58.4079 2.04326 59.3312 2.04326 60.2941V64.5958ZM-2.67029e-05 70.5271H2.10336V71.5862C2.10345 73.3533 3.54048 74.7903 5.30764 74.7905H8.32815C10.0954 74.7905 11.5323 73.3534 11.5324 71.5862V70.5271H24.232V71.5862C24.2321 73.3534 25.669 74.7905 27.4363 74.7905H30.4568C32.224 74.7904 33.661 73.3534 33.6611 71.5862V70.5271H35.7645V60.2941C35.7645 58.8988 35.3323 57.5616 34.5155 56.4305L32.845 54.1181L32.7492 53.9047H35.7645V50.9695H31.434L28.6208 44.689H7.14364L7.02606 44.9529L4.33042 50.9695H-2.67029e-05V53.9047H3.01525L2.92032 54.1181L1.24894 56.4305L1.10087 56.6447C0.380173 57.7287 -2.67029e-05 58.9859 -2.67029e-05 60.2941V70.5271Z" fill="white"/>
<path d="M31.0598 60.2698H25.5415V62.3131H31.0598V60.2698Z" fill="white"/>
<path d="M10.223 60.2698H4.70469V62.3131H10.223V60.2698Z" fill="white"/>
<path d="M207.43 39.1067V58.5423H203.435L193.646 40.077V58.0001H195.215V58.5423H191.305V58.0001H192.875V39.1067H191.305V38.5644H199.182L206.66 52.8914V39.1067H205.09V38.5644H209V39.1067H207.43Z" fill="white"/>
<path d="M183.105 58.0001L181.021 51.8355H175.371L173.173 58.0001H175.313V58.5423H170.947V58.0001H172.288L179.566 38.3932H181.906L189.098 58.0001H190.411V58.5423H181.078V58.0001H183.105ZM178.31 43.7301L175.627 51.2076H180.793L178.31 43.7301Z" fill="white"/>
<path d="M169.359 39.1067V58.5423H165.363L155.574 40.077V58.0001H157.144V58.5423H153.234V58.0001H154.803V39.1067H153.234V38.5644H161.111L168.588 52.8914V39.1067H167.018V38.5644H170.928V39.1067H169.359Z" fill="white"/>
<path d="M143.089 38.5644H151.793V39.1067H150.224V58.0001H151.793V58.5423H143.089V58.0001H144.658V39.1067H143.089V38.5644Z" fill="white"/>
<path d="M134.538 58.2284C135.489 58.2284 136.326 57.9715 137.049 57.4578C137.791 56.9441 138.162 56.1735 138.162 55.1461C138.162 54.0996 137.763 53.3005 136.964 52.7487C136.184 52.197 135.061 51.7213 133.596 51.3217C132.15 50.9032 131.094 50.5417 130.428 50.2372C129.781 49.9328 129.163 49.5332 128.573 49.0386C127.393 48.0492 126.804 46.5175 126.804 44.4436C126.804 42.7503 127.403 41.2948 128.602 40.0771C129.819 38.8594 131.475 38.2505 133.567 38.2505C134.576 38.2505 135.622 38.4027 136.707 38.7071C137.81 38.9925 138.495 39.1352 138.762 39.1352C139.028 39.1352 139.266 38.945 139.475 38.5644H139.789L139.989 44.3295H139.532C138.619 42.6742 137.658 41.3518 136.65 40.3625C135.66 39.354 134.576 38.8498 133.396 38.8498C132.236 38.8498 131.332 39.1257 130.685 39.6775C130.038 40.2102 129.715 40.9332 129.715 41.8465C129.715 42.7408 130.095 43.4352 130.856 43.9299C131.636 44.4056 132.588 44.7956 133.71 45.1001C134.833 45.4045 135.565 45.6138 135.908 45.7279C136.269 45.8421 136.707 46.0038 137.221 46.2131C137.753 46.4034 138.181 46.6127 138.505 46.841C138.847 47.0503 139.199 47.3262 139.561 47.6686C139.941 47.9921 140.236 48.3536 140.446 48.7532C140.959 49.6664 141.216 50.7509 141.216 52.0067C141.216 54.0616 140.569 55.7169 139.275 56.9726C138.001 58.2094 136.317 58.8277 134.224 58.8277C133.139 58.8277 131.893 58.685 130.485 58.3996C129.096 58.1142 128.326 57.9715 128.173 57.9715C127.907 57.9715 127.65 58.2569 127.403 58.8277H127.003L126.718 52.0352H127.203C128.04 53.6905 129.106 55.1366 130.4 56.3733C131.712 57.61 133.092 58.2284 134.538 58.2284Z" fill="white"/>
<path d="M108.86 38.5644H119.135V39.1923H116.11V57.9144H117.137C118.754 57.9144 120.039 57.4197 120.99 56.4304C121.96 55.441 122.94 53.9189 123.929 51.864H124.529L123.987 58.5423H108.86V57.9144H110.544V39.1923H108.86V38.5644Z" fill="white"/>
<path d="M100.774 58.0001L98.6907 51.8355H93.0398L90.8423 58.0001H92.9827V58.5423H88.6161V58.0001H89.9575L97.2352 38.3932H99.5754L106.767 58.0001H108.08V58.5423H98.7478V58.0001H100.774ZM95.9794 43.7301L93.2967 51.2076H98.4624L95.9794 43.7301Z" fill="white"/>
<path d="M202.944 28.2188L202.288 4.49503H207.689L208.344 28.2188H202.944Z" fill="white"/>
<path d="M190.264 28.3748L190.576 23.1306C191.409 23.1306 192.012 23.037 192.387 22.8497C192.782 22.6624 193.022 22.2878 193.105 21.726C193.209 21.1433 193.23 20.2692 193.167 19.1039L192.574 4.49503H197.975L198.63 19.7906C198.693 21.06 198.651 22.2254 198.505 23.2867C198.38 24.3272 198.047 25.2325 197.506 26.0025C196.965 26.7516 196.112 27.3343 194.947 27.7505C193.802 28.1667 192.241 28.3748 190.264 28.3748Z" fill="white"/>
<path d="M155.421 28.3748L155.734 23.1306C156.441 23.1306 157.013 23.0682 157.45 22.9434C157.908 22.7977 158.272 22.5167 158.543 22.1005C158.813 21.6635 159.053 21.0184 159.261 20.1652C159.469 19.312 159.687 18.1674 159.916 16.7315L165.067 17.5431C165.004 17.9593 164.911 18.5004 164.786 19.1663C164.682 19.8322 164.63 20.4253 164.63 20.9456C164.63 21.4034 164.703 21.7988 164.848 22.1318C164.994 22.4439 165.254 22.6832 165.629 22.8497C166.024 23.0162 166.555 23.0994 167.221 23.0994C167.824 23.0994 168.324 23.037 168.719 22.9121C169.115 22.7873 169.447 22.5063 169.718 22.0693C169.989 21.6323 170.217 20.9768 170.405 20.1027C170.592 19.2079 170.779 18.0009 170.967 16.4818L176.211 17.2934C176.107 17.8552 176.003 18.4067 175.899 18.9478C175.815 19.468 175.743 19.9467 175.68 20.3837C175.639 20.8207 175.618 21.1849 175.618 21.4762C175.618 21.7676 175.701 22.0485 175.867 22.319C176.055 22.5688 176.357 22.7665 176.773 22.9121C177.21 23.0578 177.803 23.1306 178.552 23.1306C179.593 23.1306 180.29 22.9121 180.643 22.4751C181.018 22.0381 181.205 21.3722 181.205 20.4773C181.205 20.0195 181.195 19.5097 181.174 18.9478C181.153 18.3859 181.112 17.7408 181.049 17.0124C180.987 16.2841 180.893 15.4621 180.768 14.5464L185.919 14.1406C186.085 16.076 186.262 17.6367 186.449 18.8229C186.658 20.0091 186.918 20.9144 187.23 21.5387C187.563 22.163 187.989 22.5896 188.51 22.8185C189.051 23.0266 189.738 23.1306 190.57 23.1306C191.569 23.1306 192.287 23.3804 192.724 23.8798C193.161 24.3793 193.379 24.9828 193.379 25.6903C193.379 26.4811 193.119 27.1262 192.599 27.6257C192.079 28.1251 191.298 28.3748 190.258 28.3748C189.842 28.3748 189.332 28.3332 188.728 28.25C188.146 28.1667 187.542 27.9898 186.918 27.7193C186.293 27.428 185.7 26.991 185.138 26.4083C184.577 25.8256 184.119 25.0348 183.765 24.0359L184.327 24.2232C184.015 25.1596 183.609 25.94 183.109 26.5643C182.61 27.1678 181.965 27.6257 181.174 27.9378C180.404 28.2292 179.426 28.3748 178.24 28.3748C177.283 28.3748 176.388 28.2292 175.555 27.9378C174.744 27.6465 174.099 27.1678 173.62 26.5019C173.141 25.836 172.912 24.9411 172.933 23.8174H173.995C173.537 25.1492 173.027 26.1481 172.465 26.8141C171.924 27.4592 171.248 27.8858 170.436 28.0939C169.624 28.2812 168.594 28.3748 167.346 28.3748C166.534 28.3748 165.722 28.2708 164.911 28.0627C164.12 27.8338 163.402 27.4072 162.757 26.7829C162.133 26.1377 161.633 25.1909 161.259 23.9422H163.444C162.944 25.0868 162.289 25.9817 161.477 26.6268C160.666 27.2719 159.75 27.7297 158.73 28.0003C157.71 28.25 156.608 28.3748 155.421 28.3748Z" fill="white"/>
<path d="M142.618 28.3748L142.93 23.1306C143.638 23.1306 144.221 23.0682 144.678 22.9434C145.157 22.7977 145.542 22.5063 145.833 22.0693C146.125 21.6115 146.364 20.9456 146.551 20.0715C146.759 19.1767 146.957 17.9801 147.144 16.4818L152.295 17.2934C152.274 17.5847 152.232 17.9177 152.17 18.2923C152.128 18.6668 152.087 19.0622 152.045 19.4784C152.004 19.8946 151.983 20.3004 151.983 20.6958C151.983 21.2369 152.097 21.6947 152.326 22.0693C152.555 22.4231 152.94 22.6936 153.481 22.8809C154.043 23.0474 154.792 23.1306 155.729 23.1306C156.728 23.1306 157.445 23.3804 157.882 23.8798C158.32 24.3793 158.538 24.9828 158.538 25.6903C158.538 26.4811 158.278 27.1262 157.758 27.6257C157.237 28.1251 156.457 28.3748 155.416 28.3748C153.918 28.3748 152.68 28.198 151.702 27.8442C150.745 27.4904 150.016 26.9389 149.517 26.1898C149.038 25.4406 148.736 24.4833 148.612 23.3179H150.453C150.079 24.4833 149.59 25.4094 148.986 26.0961C148.403 26.7829 147.748 27.2927 147.02 27.6257C146.312 27.9378 145.573 28.1355 144.803 28.2188C144.054 28.3228 143.326 28.3748 142.618 28.3748ZM149.08 13.1729C148.372 13.1729 147.769 12.9232 147.269 12.4238C146.77 11.9243 146.52 11.3208 146.52 10.6133C146.52 9.8849 146.77 9.26059 147.269 8.74033C147.769 8.22007 148.372 7.95995 149.08 7.95995C149.787 7.95995 150.38 8.22007 150.859 8.74033C151.358 9.26059 151.608 9.8849 151.608 10.6133C151.608 11.3208 151.358 11.9243 150.859 12.4238C150.38 12.9232 149.787 13.1729 149.08 13.1729Z" fill="white"/>
<path d="M142.626 28.3748C140.503 28.3748 138.859 28.1667 137.694 27.7505C136.549 27.3343 135.738 26.6996 135.259 25.8464C134.801 24.9932 134.541 23.9006 134.479 22.5688L133.761 4.49503H139.13L139.848 19.7594C139.91 20.7791 140.035 21.5283 140.222 22.0069C140.43 22.4855 140.753 22.7977 141.19 22.9434C141.627 23.0682 142.21 23.1306 142.938 23.1306C143.937 23.1306 144.655 23.3804 145.092 23.8798C145.529 24.3793 145.747 24.9828 145.747 25.6903C145.747 26.4811 145.487 27.1262 144.967 27.6257C144.447 28.1251 143.666 28.3748 142.626 28.3748Z" fill="white"/>
<path d="M108.219 27.1574C108.219 26.5747 108.261 25.9608 108.344 25.3157C108.428 24.6706 108.584 23.9214 108.813 23.0682C109.062 22.215 109.437 21.1849 109.936 19.9779L114.806 21.6635C114.515 22.4751 114.286 23.141 114.119 23.6613C113.974 24.1608 113.869 24.5978 113.807 24.9724C113.765 25.3469 113.745 25.7423 113.745 26.1585C113.745 26.9285 113.942 27.6153 114.338 28.2188C114.754 28.8431 115.347 29.3217 116.117 29.6547C116.908 30.0084 117.855 30.1853 118.958 30.1853C120.144 30.1853 121.111 30.0397 121.861 29.7483C122.61 29.4778 123.182 29.1032 123.577 28.6246C123.973 28.1459 124.243 27.6049 124.389 27.0014C124.535 26.377 124.608 25.7215 124.608 25.0348C124.608 24.0359 124.431 22.9329 124.077 21.7259C123.744 20.519 123.276 19.1871 122.672 17.7304L127.823 15.7014C128.239 16.513 128.624 17.439 128.978 18.4795C129.332 19.5201 129.612 20.6022 129.821 21.7259C130.049 22.8289 130.164 23.911 130.164 24.9724C130.164 26.0545 130.049 27.1054 129.821 28.1251C129.612 29.1448 129.248 30.0917 128.728 30.9657C128.208 31.8606 127.511 32.6409 126.637 33.3069C125.783 33.9728 124.712 34.4931 123.421 34.8676C122.131 35.2422 120.602 35.4295 118.833 35.4295C117.355 35.4295 115.971 35.2734 114.681 34.9613C113.391 34.6491 112.257 34.1601 111.279 33.4942C110.321 32.8282 109.572 31.9646 109.031 30.9033C108.49 29.8628 108.219 28.6142 108.219 27.1574ZM119.207 13.3914C118.5 13.3914 117.896 13.1417 117.397 12.6423C116.897 12.1428 116.648 11.5393 116.648 10.8318C116.648 10.1034 116.897 9.47909 117.397 8.95884C117.896 8.43858 118.5 8.17845 119.207 8.17845C119.915 8.17845 120.508 8.43858 120.987 8.95884C121.486 9.47909 121.736 10.1034 121.736 10.8318C121.736 11.5393 121.486 12.1428 120.987 12.6423C120.508 13.1417 119.915 13.3914 119.207 13.3914Z" fill="white"/>
<path d="M183.936 9.55194L184.061 7.45426C184.394 7.45426 184.635 7.4168 184.785 7.34188C184.943 7.26697 185.039 7.11713 185.072 6.89238C185.114 6.65931 185.122 6.30969 185.097 5.84354L184.86 1.52588e-05H187.02L187.282 6.11824C187.307 6.62601 187.291 7.09216 187.232 7.51669C187.182 7.9329 187.049 8.295 186.833 8.60299C186.616 8.90266 186.275 9.13573 185.809 9.30221C185.351 9.4687 184.727 9.55194 183.936 9.55194Z" fill="#DD0A1B"/>
<path d="M179.546 9.55194L179.671 7.45426C180.004 7.45426 180.245 7.4168 180.395 7.34188C180.553 7.26697 180.649 7.11713 180.682 6.89238C180.716 6.65931 180.724 6.30969 180.707 5.84354L180.52 1.52588e-05H182.68L182.893 5.83106C182.909 6.28888 182.951 6.63433 183.017 6.86741C183.084 7.10048 183.201 7.25864 183.367 7.34188C183.533 7.4168 183.767 7.45426 184.066 7.45426C184.466 7.45426 184.753 7.55415 184.928 7.75393C185.103 7.95371 185.19 8.19511 185.19 8.47813C185.19 8.79444 185.086 9.05249 184.878 9.25227C184.67 9.45205 184.358 9.55194 183.941 9.55194C183.6 9.55194 183.263 9.50615 182.93 9.41459C182.605 9.32302 182.322 9.14822 182.081 8.89017C181.84 8.63212 181.681 8.2617 181.606 7.7789H182.343C182.168 8.22008 181.952 8.57385 181.694 8.84023C181.444 9.09827 181.144 9.2814 180.795 9.38962C180.445 9.49783 180.029 9.55194 179.546 9.55194Z" fill="#DD0A1B"/>
<path d="M174.425 9.55193L174.55 7.45426C174.833 7.45426 175.066 7.42929 175.249 7.37934C175.44 7.32107 175.594 7.20453 175.711 7.02973C175.828 6.8466 175.923 6.58023 175.998 6.23061C176.081 5.87268 176.161 5.39404 176.235 4.7947L178.296 5.11934C178.287 5.23588 178.271 5.36907 178.246 5.5189C178.229 5.66874 178.212 5.82689 178.196 5.99338C178.179 6.15986 178.171 6.32218 178.171 6.48034C178.171 6.69676 178.217 6.87989 178.308 7.02973C178.4 7.17124 178.554 7.27945 178.77 7.35437C178.995 7.42096 179.295 7.45426 179.669 7.45426C180.069 7.45426 180.356 7.55415 180.531 7.75393C180.706 7.9537 180.793 8.1951 180.793 8.47812C180.793 8.79444 180.689 9.05249 180.481 9.25227C180.273 9.45205 179.96 9.55193 179.544 9.55193C178.945 9.55193 178.45 9.48118 178.058 9.33967C177.676 9.19816 177.384 8.97757 177.184 8.6779C176.993 8.37823 176.872 7.99533 176.822 7.52917H177.559C177.409 7.99533 177.214 8.36575 176.972 8.64044C176.739 8.91514 176.477 9.11908 176.186 9.25227C175.902 9.37713 175.607 9.45621 175.299 9.4895C174.999 9.53112 174.708 9.55193 174.425 9.55193ZM177.01 3.47117C176.727 3.47117 176.485 3.37128 176.285 3.1715C176.086 2.97172 175.986 2.73032 175.986 2.4473C175.986 2.15596 176.086 1.90624 176.285 1.69813C176.485 1.49003 176.727 1.38598 177.01 1.38598C177.293 1.38598 177.53 1.49003 177.721 1.69813C177.921 1.90624 178.021 2.15596 178.021 2.4473C178.021 2.73032 177.921 2.97172 177.721 3.1715C177.53 3.37128 177.293 3.47117 177.01 3.47117Z" fill="#DD0A1B"/>
<path d="M167.572 9.55193L167.697 7.45426C167.839 7.45426 168.03 7.44593 168.271 7.42928C168.521 7.41263 168.783 7.39182 169.058 7.36685C169.341 7.33356 169.607 7.2961 169.857 7.25448C170.115 7.21286 170.323 7.16707 170.481 7.11713C170.756 7.02556 170.977 6.91735 171.143 6.79249C171.318 6.6593 171.443 6.51779 171.518 6.36796C171.601 6.21812 171.643 6.05997 171.643 5.89348C171.643 5.7603 171.614 5.63544 171.555 5.5189C171.505 5.40236 171.435 5.3108 171.343 5.2442C171.251 5.16929 171.156 5.13183 171.056 5.13183C170.956 5.13183 170.856 5.16929 170.756 5.2442C170.656 5.3108 170.573 5.40652 170.506 5.53138C170.44 5.65625 170.407 5.80608 170.407 5.98089C170.407 6.0891 170.432 6.20564 170.481 6.3305C170.531 6.45536 170.615 6.58439 170.731 6.71757C170.856 6.84243 171.027 6.97978 171.243 7.12961L169.358 7.92873C169.141 7.70398 168.954 7.48339 168.796 7.26696C168.646 7.05054 168.529 6.82578 168.446 6.59271C168.371 6.35131 168.334 6.0891 168.334 5.80608C168.334 5.43982 168.413 5.10269 168.571 4.7947C168.738 4.47838 168.954 4.20369 169.22 3.97061C169.487 3.73754 169.782 3.55857 170.107 3.43371C170.432 3.30052 170.76 3.23393 171.093 3.23393C171.584 3.23393 172.026 3.35463 172.417 3.59603C172.816 3.8291 173.133 4.13293 173.366 4.50752C173.599 4.8821 173.715 5.28166 173.715 5.70619C173.715 6.13904 173.636 6.52612 173.478 6.8674C173.328 7.20037 173.129 7.49588 172.879 7.75392C172.629 8.00365 172.354 8.22424 172.055 8.41569C171.755 8.60714 171.46 8.77779 171.168 8.92762C170.943 9.04416 170.66 9.14405 170.319 9.22729C169.986 9.30221 169.637 9.36464 169.27 9.41458C168.912 9.46453 168.579 9.49782 168.271 9.51447C167.972 9.53944 167.739 9.55193 167.572 9.55193ZM174.427 9.55193C173.903 9.55193 173.391 9.5228 172.891 9.46453C172.4 9.40626 171.951 9.32718 171.543 9.22729C171.135 9.11908 170.802 8.99005 170.544 8.84022L171.405 7.1421C171.655 7.24199 171.947 7.31691 172.279 7.36685C172.621 7.40847 172.983 7.43344 173.366 7.44177C173.757 7.45009 174.152 7.45426 174.552 7.45426C174.952 7.45426 175.239 7.55414 175.414 7.75392C175.588 7.9537 175.676 8.1951 175.676 8.47812C175.676 8.79444 175.572 9.05248 175.364 9.25226C175.155 9.45204 174.843 9.55193 174.427 9.55193ZM172.279 2.04774C172.021 2.04774 171.805 1.96034 171.63 1.78553C171.464 1.6024 171.38 1.38598 171.38 1.13625C171.38 0.869881 171.464 0.653454 171.63 0.486972C171.805 0.312165 172.021 0.224762 172.279 0.224762C172.538 0.224762 172.758 0.312165 172.941 0.486972C173.124 0.653454 173.216 0.869881 173.216 1.13625C173.216 1.38598 173.124 1.6024 172.941 1.78553C172.758 1.96034 172.538 2.04774 172.279 2.04774ZM170.069 2.04774C169.803 2.04774 169.582 1.96034 169.408 1.78553C169.233 1.6024 169.145 1.38598 169.145 1.13625C169.145 0.869881 169.233 0.653454 169.408 0.486972C169.582 0.312165 169.799 0.224762 170.057 0.224762C170.307 0.224762 170.523 0.312165 170.706 0.486972C170.889 0.653454 170.981 0.869881 170.981 1.13625C170.981 1.38598 170.889 1.6024 170.706 1.78553C170.531 1.96034 170.319 2.04774 170.069 2.04774Z" fill="#DD0A1B"/>
<path d="M157.715 9.06498C157.715 8.8319 157.731 8.58634 157.765 8.32829C157.798 8.07024 157.86 7.77058 157.952 7.42929C158.052 7.088 158.202 6.67595 158.401 6.19316L160.349 6.86741C160.233 7.19205 160.141 7.45842 160.075 7.66652C160.016 7.8663 159.975 8.04111 159.95 8.19094C159.933 8.34078 159.925 8.49894 159.925 8.66542C159.925 8.97341 160.004 9.24811 160.162 9.4895C160.328 9.73923 160.566 9.93068 160.874 10.0639C161.19 10.2054 161.569 10.2761 162.01 10.2761C162.651 10.2761 163.134 10.1679 163.458 9.95149C163.791 9.73507 164.012 9.4021 164.12 8.9526C164.237 8.5031 164.282 7.92457 164.257 7.21702L164.008 1.52588e-05H166.18L166.355 5.83106C166.372 6.28888 166.422 6.63433 166.505 6.86741C166.596 7.10048 166.738 7.25864 166.929 7.34188C167.121 7.4168 167.375 7.45426 167.691 7.45426C168.091 7.45426 168.378 7.55415 168.553 7.75393C168.727 7.95371 168.815 8.19511 168.815 8.47813C168.815 8.79444 168.711 9.05249 168.503 9.25227C168.295 9.45205 167.982 9.55194 167.566 9.55194C167.466 9.55194 167.321 9.53529 167.129 9.50199C166.938 9.46869 166.734 9.4021 166.517 9.30221C166.301 9.194 166.105 9.03584 165.931 8.82774C165.756 8.61964 165.635 8.34494 165.568 8.00365L166.343 8.54056C166.276 9.0733 166.147 9.57275 165.956 10.0389C165.764 10.505 165.494 10.9129 165.144 11.2625C164.803 11.6122 164.37 11.8827 163.845 12.0741C163.321 12.2739 162.692 12.3738 161.96 12.3738C161.369 12.3738 160.815 12.3114 160.299 12.1865C159.792 12.0617 159.342 11.866 158.951 11.5997C158.568 11.3333 158.264 10.9878 158.039 10.5633C157.823 10.1471 157.715 9.64766 157.715 9.06498Z" fill="#DD0A1B"/>
<path d="M169.069 63.4476L169.203 66.8055H168.949C168.557 65.6193 168.209 64.8122 167.905 64.3841C167.602 63.947 167.165 63.7285 166.594 63.7285H166.434V72.5313H167.571V72.8122H162.688V72.5313H163.825V63.7285H163.651C163.08 63.7285 162.639 63.956 162.327 64.4108C162.015 64.8568 161.671 65.655 161.297 66.8055H161.043L161.176 63.4476H169.069Z" fill="#DD0A1B"/>
<path d="M156.039 68.0764H155.33V72.558H156.199V72.8122H151.852V72.558H152.721V63.7018H151.852V63.4476H155.892C157.051 63.4476 157.872 63.51 158.353 63.6349C158.844 63.7508 159.187 63.8935 159.383 64.063C159.812 64.4108 160.026 64.9638 160.026 65.7219C160.026 66.48 159.838 67.024 159.464 67.354C159.089 67.6751 158.518 67.8668 157.751 67.9292V67.9694C158.474 68.0675 158.978 68.2815 159.263 68.6115C159.548 68.9415 159.691 69.4945 159.691 70.2704V70.9794C159.691 71.4432 159.713 71.7554 159.758 71.9159C159.812 72.0764 159.919 72.1567 160.079 72.1567C160.24 72.1567 160.364 72.0854 160.454 71.9427C160.552 71.791 160.641 71.4789 160.721 71.0062L160.949 71.033C160.851 71.791 160.677 72.2994 160.427 72.558C160.186 72.8167 159.7 72.946 158.969 72.946C158.237 72.946 157.716 72.7766 157.403 72.4376C157.1 72.0898 156.949 71.4432 156.949 70.4978V69.5212C156.949 69.0218 156.882 68.6561 156.748 68.4242C156.623 68.1923 156.387 68.0764 156.039 68.0764ZM155.33 63.7018V67.8222H155.758C156.266 67.8222 156.641 67.6661 156.882 67.354C157.131 67.0418 157.256 66.5335 157.256 65.8289V65.4409C157.256 64.7364 157.136 64.2726 156.895 64.0496C156.663 63.8177 156.289 63.7018 155.771 63.7018H155.33Z" fill="#DD0A1B"/>
<path d="M148.346 68.6784V67.6884C148.346 66.0563 148.266 65.0262 148.105 64.5981C147.927 64.1076 147.673 63.8043 147.343 63.6884C147.155 63.617 146.928 63.5814 146.66 63.5814C146.393 63.5814 146.161 63.617 145.965 63.6884C145.777 63.7597 145.621 63.8846 145.496 64.063C145.372 64.2414 145.269 64.4286 145.189 64.6249C145.117 64.8211 145.059 65.0975 145.015 65.4543C144.961 65.9716 144.935 66.7341 144.935 67.7419V68.7052C144.935 69.7932 144.975 70.5692 145.055 71.0329C145.144 71.4878 145.251 71.8133 145.376 72.0095C145.652 72.4466 146.081 72.6651 146.66 72.6651C147.365 72.6651 147.82 72.3707 148.025 71.7821C148.239 71.1846 148.346 70.15 148.346 68.6784ZM146.634 72.946C145.144 72.946 144.029 72.5447 143.289 71.742C142.558 70.9304 142.192 69.762 142.192 68.2369C142.192 66.7029 142.584 65.4989 143.369 64.6249C144.163 63.7419 145.282 63.3004 146.727 63.3004C148.172 63.3004 149.26 63.7196 149.991 64.558C150.732 65.3874 151.102 66.5691 151.102 68.1031C151.102 69.6372 150.727 70.8278 149.978 71.6751C149.238 72.5224 148.123 72.946 146.634 72.946Z" fill="#DD0A1B"/>
<path d="M133.496 63.4476H137.429C138.776 63.4476 139.779 63.6438 140.439 64.0362C141.099 64.4197 141.429 65.1109 141.429 66.1098C141.429 67.2158 141.028 67.9783 140.225 68.3975C139.476 68.781 138.428 68.9727 137.081 68.9727H136.974V72.558H138.647V72.8122H133.496V72.558H134.366V63.7018H133.496V63.4476ZM136.974 63.7018V68.7185H137.255C137.79 68.7185 138.16 68.5357 138.366 68.1701C138.571 67.8044 138.673 67.2113 138.673 66.3908V65.7486C138.673 64.9905 138.575 64.4599 138.379 64.1566C138.192 63.8534 137.844 63.7018 137.335 63.7018H136.974Z" fill="#DD0A1B"/>
<path d="M129.622 72.6651C130.068 72.6651 130.46 72.5447 130.799 72.3039C131.147 72.063 131.321 71.7018 131.321 71.2202C131.321 70.7297 131.133 70.3551 130.759 70.0965C130.393 69.8378 129.867 69.6149 129.18 69.4276C128.502 69.2314 128.007 69.0619 127.695 68.9192C127.392 68.7765 127.102 68.5892 126.826 68.3573C126.273 67.8936 125.996 67.1756 125.996 66.2035C125.996 65.4097 126.277 64.7274 126.839 64.1566C127.41 63.5858 128.186 63.3004 129.167 63.3004C129.639 63.3004 130.13 63.3718 130.638 63.5145C131.156 63.6483 131.477 63.7151 131.602 63.7151C131.726 63.7151 131.838 63.626 131.936 63.4476H132.083L132.177 66.15H131.963C131.535 65.374 131.084 64.7542 130.612 64.2904C130.148 63.8177 129.639 63.5814 129.086 63.5814C128.542 63.5814 128.119 63.7107 127.816 63.9693C127.512 64.2191 127.361 64.558 127.361 64.9861C127.361 65.4052 127.539 65.7308 127.896 65.9627C128.261 66.1856 128.707 66.3685 129.234 66.5112C129.76 66.6539 130.103 66.752 130.264 66.8055C130.433 66.859 130.638 66.9348 130.879 67.0329C131.129 67.1221 131.33 67.2202 131.481 67.3272C131.642 67.4253 131.807 67.5546 131.976 67.7152C132.154 67.8668 132.293 68.0363 132.391 68.2235C132.632 68.6516 132.752 69.16 132.752 69.7486C132.752 70.7119 132.449 71.4878 131.842 72.0764C131.245 72.6561 130.455 72.946 129.474 72.946C128.966 72.946 128.382 72.8791 127.722 72.7453C127.071 72.6115 126.71 72.5447 126.638 72.5447C126.513 72.5447 126.393 72.6784 126.277 72.946H126.09L125.956 69.762H126.183C126.576 70.538 127.075 71.2158 127.682 71.7955C128.297 72.3752 128.944 72.6651 129.622 72.6651Z" fill="#DD0A1B"/>
<path d="M124.205 63.7018V72.8122H122.332L117.743 64.1566V72.558H118.479V72.8122H116.646V72.558H117.382V63.7018H116.646V63.4476H120.338L123.843 70.1634V63.7018H123.108V63.4476H124.94V63.7018H124.205Z" fill="#DD0A1B"/>
<path d="M112.802 72.558L111.825 69.6684H109.176L108.146 72.558H109.15V72.8122H107.103V72.558H107.732L111.143 63.3673H112.24L115.611 72.558H116.227V72.8122H111.852V72.558H112.802ZM110.554 65.869L109.297 69.3741H111.718L110.554 65.869Z" fill="#DD0A1B"/>
<path d="M101.965 68.0764H101.256V72.558H102.126V72.8122H97.7777V72.558H98.6472V63.7018H97.7777V63.4476H101.818C102.977 63.4476 103.798 63.51 104.279 63.6349C104.77 63.7508 105.113 63.8935 105.31 64.063C105.738 64.4108 105.952 64.9638 105.952 65.7219C105.952 66.48 105.764 67.024 105.39 67.354C105.015 67.6751 104.444 67.8668 103.677 67.9292V67.9694C104.4 68.0675 104.904 68.2815 105.189 68.6115C105.474 68.9415 105.617 69.4945 105.617 70.2704V70.9794C105.617 71.4432 105.639 71.7554 105.684 71.9159C105.738 72.0764 105.845 72.1567 106.005 72.1567C106.166 72.1567 106.291 72.0854 106.38 71.9427C106.478 71.791 106.567 71.4789 106.647 71.0062L106.875 71.033C106.777 71.791 106.603 72.2994 106.353 72.558C106.112 72.8167 105.626 72.946 104.895 72.946C104.163 72.946 103.642 72.7766 103.33 72.4376C103.026 72.0898 102.875 71.4432 102.875 70.4978V69.5212C102.875 69.0218 102.808 68.6561 102.674 68.4242C102.549 68.1923 102.313 68.0764 101.965 68.0764ZM101.256 63.7018V67.8222H101.684C102.192 67.8222 102.567 67.6661 102.808 67.354C103.058 67.0418 103.182 66.5335 103.182 65.8289V65.4409C103.182 64.7364 103.062 64.2726 102.821 64.0496C102.589 63.8177 102.215 63.7018 101.697 63.7018H101.256Z" fill="#DD0A1B"/>
<path d="M96.9534 63.4476L97.0871 66.8055H96.833C96.4405 65.6193 96.0927 64.8122 95.7895 64.3841C95.4862 63.947 95.0492 63.7285 94.4784 63.7285H94.3179V72.5313H95.455V72.8122H90.572V72.5313H91.7092V63.7285H91.5352C90.9645 63.7285 90.523 63.956 90.2108 64.4108C89.8987 64.8568 89.5553 65.655 89.1807 66.8055H88.9265L89.0603 63.4476H96.9534Z" fill="#DD0A1B"/>
</svg>
